<svg width="12" height="12" viewBox="0 0 12 12" fill="none" xmlns="http://www.w3.org/2000/svg">
<path d="M10.7143 0H1.28571C0.575893 0 0 0.575893 0 1.28571V10.7143C0 11.4241 0.575893 12 1.28571 12H10.7143C11.4241 12 12 11.4241 12 10.7143V1.28571C12 0.575893 11.4241 0 10.7143 0ZM4.28571 9C4.28571 9.23679 4.09393 9.42857 3.85714 9.42857H3C2.76321 9.42857 2.57143 9.23679 2.57143 9V5.57143C2.57143 5.33464 2.76321 5.14286 3 5.14286H3.85714C4.09393 5.14286 4.28571 5.33464 4.28571 5.57143V9ZM6.85714 9C6.85714 9.23679 6.66536 9.42857 6.42857 9.42857H5.57143C5.33464 9.42857 5.14286 9.23679 5.14286 9V3C5.14286 2.76321 5.33464 2.57143 5.57143 2.57143H6.42857C6.66536 2.57143 6.85714 2.76321 6.85714 3V9ZM9.42857 9C9.42857 9.23679 9.23679 9.42857 9 9.42857H8.14286C7.90607 9.42857 7.71429 9.23679 7.71429 9V7.28571C7.71429 7.04893 7.90607 6.85714 8.14286 6.85714H9C9.23679 6.85714 9.42857 7.04893 9.42857 7.28571V9Z" fill="white"/>
</svg>
